<?xml version="1.0" encoding="utf-8"?>
<!-- Generator: Adobe Illustrator 16.0.0, SVG Export Plug-In . SVG Version: 6.00 Build 0)  -->
<!DOCTYPE svg PUBLIC "-//W3C//DTD SVG 1.1//EN" "http://www.w3.org/Graphics/SVG/1.1/DTD/svg11.dtd">
<svg version="1.1" id="Layer_1" xmlns="http://www.w3.org/2000/svg" xmlns:xlink="http://www.w3.org/1999/xlink" x="0px" y="0px"
	 width="360px" height="360px" viewBox="0 0 360 360" enable-background="new 0 0 360 360" xml:space="preserve">
<g>
	<path fill="#2281BB" stroke="#999999" stroke-miterlimit="10" d="M198.632,133.112c0.788-0.676,1.182-1.57,1.182-2.681
		c0-1.109-0.389-2.01-1.166-2.695c-0.778-0.687-1.965-1.03-3.562-1.03h-29.367c-0.076,0-0.141,0.011-0.215,0.013
		c-1.207,0.006-2.261,0.047-2.694,0.115c-0.396,0.063-0.787,0.048-1.183,0.513c-0.438,0.517-10.957,32.877-10.957,32.877
		s-6.625-18.357-6.628-18.366c-0.404-1.236-0.907-2.444-1.641-4.05c-0.591-1.296-1.611-1.345-2.756-1.295
		c-1.38,0.061-3.511-0.082-4.921-0.013c-0.626,0.031-1.045,0.199-1.297,0.486v-5.343c0-1.938-0.566-3.246-1.701-3.923
		s-2.665-1.015-4.594-1.015h-3.13c-1.884,0-3.249,0.151-4.101,0.454c-0.85,0.304-1.479,0.849-1.888,1.636s-0.874,2.07-1.396,3.848
		l-7.247,24.323l-7.248-24.323c-0.522-1.777-0.986-3.061-1.395-3.848c-0.409-0.787-1.038-1.332-1.89-1.636
		c-0.85-0.303-2.217-0.454-4.1-0.454h-3.13c-1.929,0-3.46,0.338-4.594,1.015c-1.135,0.677-1.701,1.984-1.701,3.923v35.138
		c0,1.717,0.431,2.994,1.292,3.831c0.862,0.839,1.975,1.257,3.336,1.257c1.406,0,2.534-0.423,3.385-1.272
		c0.852-0.847,1.276-2.119,1.276-3.815v-30.655l7.995,28.292c0.273,0.929,0.539,1.822,0.801,2.681
		c0.261,0.858,0.617,1.641,1.071,2.348c0.454,0.706,1.089,1.287,1.905,1.742c0.817,0.453,1.815,0.681,2.995,0.681
		c1.564,0,2.79-0.354,3.674-1.06c0.885-0.707,1.492-1.489,1.82-2.348c0.329-0.857,0.755-2.206,1.276-4.044l7.996-28.292v30.655
		c0,1.696,0.431,2.969,1.293,3.815c0.862,0.85,1.962,1.272,3.301,1.272c1.43,0,2.569-0.423,3.42-1.272
		c0.85-0.847,1.275-2.119,1.275-3.815v-27.312c1.016,3.003,13.243,32.117,13.243,32.117l-0.714,1.933
		c-0.534,1.416-1.006,2.489-1.415,3.217c-0.41,0.729-2.628,6.491-3.04,7.496c-0.832,2.028-2.282,5.376-0.383,7.233
		c1.283,1.256,3.552,1.534,4.9,0.323c1.304-1.172,2.205-3.058,2.746-4.796c0,0,4.001-9.83,4.877-12.428
		c0,0,10.261-27.252,14.995-40.438h7.16v32.26c0,1.838,0.431,3.212,1.292,4.12c0.86,0.909,1.975,1.362,3.344,1.362
		c1.348,0,2.447-0.448,3.298-1.348c0.851-0.897,1.274-2.276,1.274-4.135v-32.26h10.08
		C196.661,134.127,197.844,133.79,198.632,133.112z"/>
	<path fill="#2281BB" stroke="#999999" stroke-miterlimit="10" d="M231.35,125.076c-1.182,0-2.119,0.432-2.814,1.296
		c-0.696,0.864-1.043,2.141-1.043,3.828v36.551c0,1.646,0.356,2.913,1.071,3.797c0.714,0.885,1.643,1.328,2.786,1.328
		c1.162,0,2.109-0.427,2.844-1.281c0.732-0.854,1.1-2.136,1.1-3.844V130.2c0-1.708-0.362-2.989-1.086-3.843
		S232.531,125.076,231.35,125.076z"/>
	<path fill="#2281BB" stroke="#999999" stroke-miterlimit="10" d="M271.584,166.129c-0.29-0.519-0.766-1.274-1.431-2.27
		l-8.997-13.415l4.659-4.054c2.379-2.032,3.566-3.658,3.566-4.878c0-0.995-0.362-1.824-1.094-2.485
		c-0.728-0.659-1.638-0.99-2.73-0.99c-0.921,0-1.702,0.225-2.345,0.671c-0.645,0.447-1.576,1.28-2.797,2.499l-9.864,9.817v-20.182
		c0-1.707-0.397-2.998-1.189-3.872c-0.792-0.873-1.864-1.311-3.214-1.311c-1.393,0-2.463,0.483-3.213,1.448
		c-0.751,0.965-1.125,2.373-1.125,4.222v35.485c0,1.666,0.385,2.927,1.158,3.78c0.771,0.854,1.831,1.28,3.18,1.28
		c1.157,0,2.18-0.433,3.068-1.296c0.891-0.863,1.335-2.099,1.335-3.704v-6.615l4.755-4.269l7.744,12.073
		c0.986,1.442,1.768,2.438,2.347,2.987c0.578,0.549,1.403,0.823,2.474,0.823c1.242,0,2.243-0.382,3.006-1.144
		c0.76-0.763,1.141-1.803,1.141-3.125C272.018,167.141,271.873,166.646,271.584,166.129z"/>
	<path fill="#2281BB" stroke="#999999" stroke-miterlimit="10" d="M217.45,145.385c0,0,0.313-3.459-2.78-6.619
		c-0.659-0.673-1.386-1.189-2.136-1.601l1.533-3.121c0.067-0.138,0.011-0.305-0.128-0.374c-0.139-0.067-0.305-0.01-0.373,0.128
		l-1.522,3.101c-1.54-0.731-3.152-0.995-4.516-0.995c-1.312,0-2.827,0.297-4.281,0.938l-1.35-2.748
		c-0.067-0.139-0.234-0.195-0.373-0.128c-0.139,0.068-0.195,0.235-0.127,0.374l1.344,2.735c-0.891,0.45-1.747,1.033-2.503,1.779
		c-2.99,2.956-2.683,6.529-2.683,6.53H217.45z M211.975,139.827c0.438,0,0.793,0.402,0.793,0.898c0,0.495-0.354,0.897-0.793,0.897
		s-0.794-0.402-0.794-0.897C211.181,140.229,211.536,139.827,211.975,139.827z M203,139.827c0.438,0,0.793,0.402,0.793,0.898
		c0,0.495-0.355,0.897-0.793,0.897c-0.439,0-0.794-0.402-0.794-0.897C202.206,140.229,202.561,139.827,203,139.827z"/>
	<path fill="#2281BB" stroke="#999999" stroke-miterlimit="10" d="M217.426,146.212l-19.71,0.025c0,0-0.16-1.229-0.16,3.642v9.424
		c0.099,2.608-0.517,4.503,3.224,4.552h0.743v5.102c0,1.351,1.094,2.444,2.444,2.444c1.35,0,2.444-1.094,2.444-2.444v-5.102h2.428
		v5.102c0,1.351,1.094,2.444,2.444,2.444c1.35,0,2.444-1.094,2.444-2.444v-5.099c2.203,0.009,3.809-0.075,3.809-3.669l-0.062-10.199
		C217.426,145.893,217.426,146.212,217.426,146.212z"/>
	<path fill="#2281BB" stroke="#999999" stroke-miterlimit="10" d="M195.586,145.989c-1.17-0.356-2.407,0.304-2.764,1.474
		l-2.99,9.824c-0.355,1.171,0.304,2.408,1.474,2.764c1.171,0.356,2.408-0.304,2.765-1.474l2.989-9.824
		C197.416,147.583,196.756,146.346,195.586,145.989z"/>
	<path fill="#2281BB" stroke="#999999" stroke-miterlimit="10" d="M222.187,147.463c-0.356-1.17-1.594-1.83-2.764-1.474
		c-1.17,0.355-1.83,1.593-1.474,2.764l2.99,9.824c0.355,1.17,1.593,1.83,2.764,1.473c1.17-0.355,1.829-1.593,1.474-2.763
		L222.187,147.463z"/>
</g>
<path fill="#999999" d="M141.713,177.684c0,0.733-0.595,1.328-1.329,1.328H86.152c-0.734,0-1.329-0.595-1.329-1.328l0,0
	c0-0.733,0.595-1.328,1.329-1.328h54.231C141.118,176.355,141.713,176.95,141.713,177.684L141.713,177.684z"/>
<path fill="#999999" d="M275.177,177.684c0,0.733-0.6,1.328-1.34,1.328H155.65c-0.739,0-1.339-0.595-1.339-1.328l0,0
	c0-0.733,0.6-1.328,1.339-1.328h118.187C274.577,176.355,275.177,176.95,275.177,177.684L275.177,177.684z"/>
<text transform="matrix(1 0 0 1 154.3105 191.1182)" fill="#999999" font-family="'ArialRoundedMTBold'" font-size="14.1732" letter-spacing="1">M O B I L E</text>
<text transform="matrix(1 0 0 1 274.5537 132.3604)" fill="#2281BB" stroke="#999999" stroke-miterlimit="10" font-family="'ArialRoundedMTBold'" font-size="7.874">TM</text>
</svg>
